solid oxo-chime-ring
facet normal 0.0 0.0 -1.0
  outer loop
    vertex -2.3293714059226858 8.693332436601615 0.0
    vertex -4.228645322490529 0.4255099723613631 0.0
    vertex -4.499999999999998 7.794228634059948 0.0
  endloop
endfacet
facet normal 0.0 0.0 -1.0
  outer loop
    vertex -4.228645322490529 0.4255099723613631 0.0
    vertex -2.3293714059226858 8.693332436601615 0.0
    vertex -3.9744276424819 1.5054650160916276 0.0
  endloop
endfacet
facet normal 0.0 0.0 -1.0
  outer loop
    vertex -3.9744276424819 1.5054650160916276 0.0
    vertex -2.3293714059226858 8.693332436601615 0.0
    vertex -3.4493592866903566 2.4828251068738196 0.0
  endloop
endfacet
facet normal 0.0 0.0 -1.0
  outer loop
    vertex -3.4493592866903566 2.4828251068738196 0.0
    vertex -2.3293714059226858 8.693332436601615 0.0
    vertex -2.6892227958466086 3.2909847696850485 0.0
  endloop
endfacet
facet normal 0.0 0.0 -1.0
  outer loop
    vertex -2.6892227958466086 3.2909847696850485 0.0
    vertex -2.3293714059226858 8.693332436601615 0.0
    vertex -1.7458202156167102 3.8748692590517195 0.0
  endloop
endfacet
facet normal 0.0 0.0 -1.0
  outer loop
    vertex -1.7458202156167102 3.8748692590517195 0.0
    vertex -2.3293714059226858 8.693332436601615 0.0
    vertex 5.51091059616309e-16 9.0 0.0
  endloop
endfacet
facet normal 0.0 0.0 -1.0
  outer loop
    vertex -1.7458202156167102 3.8748692590517195 0.0
    vertex 5.51091059616309e-16 9.0 0.0
    vertex -0.6834428727968516 4.194687811938236 0.0
  endloop
endfacet
facet normal 0.0 0.0 -1.0
  outer loop
    vertex -0.6834428727968516 4.194687811938236 0.0
    vertex 5.51091059616309e-16 9.0 0.0
    vertex 0.42550997236136273 4.228645322490529 0.0
  endloop
endfacet
facet normal 0.0 0.0 -1.0
  outer loop
    vertex 0.42550997236136273 4.228645322490529 0.0
    vertex 5.51091059616309e-16 9.0 0.0
    vertex 2.329371405922689 8.693332436601615 0.0
  endloop
endfacet
facet normal 0.0 0.0 -1.0
  outer loop
    vertex 0.42550997236136273 4.228645322490529 0.0
    vertex 2.329371405922689 8.693332436601615 0.0
    vertex 1.5054650160916274 3.9744276424819 0.0
  endloop
endfacet
facet normal 0.0 0.0 -1.0
  outer loop
    vertex 1.5054650160916274 3.9744276424819 0.0
    vertex 2.329371405922689 8.693332436601615 0.0
    vertex 2.482825106873822 3.4493592866903544 0.0
  endloop
endfacet
facet normal 0.0 0.0 -1.0
  outer loop
    vertex 2.482825106873822 3.4493592866903544 0.0
    vertex 2.329371405922689 8.693332436601615 0.0
    vertex 4.500000000000001 7.794228634059948 0.0
  endloop
endfacet
facet normal 0.0 0.0 -1.0
  outer loop
    vertex 2.482825106873822 3.4493592866903544 0.0
    vertex 4.500000000000001 7.794228634059948 0.0
    vertex 3.290984769685049 2.689222795846607 0.0
  endloop
endfacet
facet normal 0.0 0.0 -1.0
  outer loop
    vertex 3.290984769685049 2.689222795846607 0.0
    vertex 4.500000000000001 7.794228634059948 0.0
    vertex 3.8748692590517204 1.7458202156167093 0.0
  endloop
endfacet
facet normal 0.0 0.0 -1.0
  outer loop
    vertex 3.8748692590517204 1.7458202156167093 0.0
    vertex 4.500000000000001 7.794228634059948 0.0
    vertex 4.194687811938236 0.6834428727968489 0.0
  endloop
endfacet
facet normal 0.0 0.0 -1.0
  outer loop
    vertex 4.194687811938236 0.6834428727968489 0.0
    vertex 4.500000000000001 7.794228634059948 0.0
    vertex 4.228645322490529 -0.4255099723613647 0.0
  endloop
endfacet
facet normal 0.0 0.0 -1.0
  outer loop
    vertex 4.228645322490529 -0.4255099723613647 0.0
    vertex 4.500000000000001 7.794228634059948 0.0
    vertex 4.499999999999994 -7.794228634059951 0.0
  endloop
endfacet
facet normal 0.0 0.0 -1.0
  outer loop
    vertex 4.499999999999994 -7.794228634059951 0.0
    vertex 4.500000000000001 7.794228634059948 0.0
    vertex 6.363961030678927 -6.363961030678929 0.0
  endloop
endfacet
facet normal 0.0 0.0 -1.0
  outer loop
    vertex 6.363961030678927 -6.363961030678929 0.0
    vertex 4.500000000000001 7.794228634059948 0.0
    vertex 6.3639610306789285 6.3639610306789285 0.0
  endloop
endfacet
facet normal 0.0 0.0 -1.0
  outer loop
    vertex 6.363961030678927 -6.363961030678929 0.0
    vertex 6.3639610306789285 6.3639610306789285 0.0
    vertex 7.794228634059945 -4.500000000000004 0.0
  endloop
endfacet
facet normal 0.0 0.0 -1.0
  outer loop
    vertex 7.794228634059945 -4.500000000000004 0.0
    vertex 6.3639610306789285 6.3639610306789285 0.0
    vertex 7.794228634059948 4.499999999999999 0.0
  endloop
endfacet
facet normal 0.0 0.0 -1.0
  outer loop
    vertex 7.794228634059945 -4.500000000000004 0.0
    vertex 7.794228634059948 4.499999999999999 0.0
    vertex 8.693332436601613 -2.329371405922694 0.0
  endloop
endfacet
facet normal 0.0 0.0 -1.0
  outer loop
    vertex 8.693332436601613 -2.329371405922694 0.0
    vertex 7.794228634059948 4.499999999999999 0.0
    vertex 8.693332436601615 2.329371405922687 0.0
  endloop
endfacet
facet normal 0.0 0.0 -1.0
  outer loop
    vertex 8.693332436601613 -2.329371405922694 0.0
    vertex 8.693332436601615 2.329371405922687 0.0
    vertex 9.0 0.0 0.0
  endloop
endfacet
facet normal 0.0 0.0 -1.0
  outer loop
    vertex -8.693332436601615 2.3293714059226893 0.0
    vertex -8.693332436601617 -2.3293714059226835 0.0
    vertex -9.0 1.102182119232618e-15 0.0
  endloop
endfacet
facet normal 0.0 0.0 -1.0
  outer loop
    vertex -8.693332436601617 -2.3293714059226835 0.0
    vertex -8.693332436601615 2.3293714059226893 0.0
    vertex -7.79422863405995 -4.499999999999997 0.0
  endloop
endfacet
facet normal 0.0 0.0 -1.0
  outer loop
    vertex -7.79422863405995 -4.499999999999997 0.0
    vertex -8.693332436601615 2.3293714059226893 0.0
    vertex -7.794228634059947 4.500000000000003 0.0
  endloop
endfacet
facet normal 0.0 0.0 -1.0
  outer loop
    vertex -7.79422863405995 -4.499999999999997 0.0
    vertex -7.794228634059947 4.500000000000003 0.0
    vertex -6.363961030678931 -6.363961030678924 0.0
  endloop
endfacet
facet normal 0.0 0.0 -1.0
  outer loop
    vertex -6.363961030678931 -6.363961030678924 0.0
    vertex -7.794228634059947 4.500000000000003 0.0
    vertex -6.3639610306789285 6.3639610306789285 0.0
  endloop
endfacet
facet normal 0.0 0.0 -1.0
  outer loop
    vertex -6.363961030678931 -6.363961030678924 0.0
    vertex -6.3639610306789285 6.3639610306789285 0.0
    vertex -4.500000000000004 -7.794228634059947 0.0
  endloop
endfacet
facet normal 0.0 0.0 -1.0
  outer loop
    vertex -4.500000000000004 -7.794228634059947 0.0
    vertex -6.3639610306789285 6.3639610306789285 0.0
    vertex -4.499999999999998 7.794228634059948 0.0
  endloop
endfacet
facet normal 0.0 0.0 -1.0
  outer loop
    vertex -4.500000000000004 -7.794228634059947 0.0
    vertex -4.499999999999998 7.794228634059948 0.0
    vertex -4.194687811938236 -0.6834428727968508 0.0
  endloop
endfacet
facet normal 0.0 0.0 -1.0
  outer loop
    vertex -4.500000000000004 -7.794228634059947 0.0
    vertex -4.194687811938236 -0.6834428727968508 0.0
    vertex -2.3293714059226938 -8.693332436601613 0.0
  endloop
endfacet
facet normal 0.0 0.0 -1.0
  outer loop
    vertex -4.194687811938236 -0.6834428727968508 0.0
    vertex -4.499999999999998 7.794228634059948 0.0
    vertex -4.228645322490529 0.4255099723613631 0.0
  endloop
endfacet
facet normal 0.0 0.0 -1.0
  outer loop
    vertex -2.3293714059226938 -8.693332436601613 0.0
    vertex -4.194687811938236 -0.6834428727968508 0.0
    vertex -3.8748692590517195 -1.74582021561671 0.0
  endloop
endfacet
facet normal 0.0 0.0 -1.0
  outer loop
    vertex -2.3293714059226938 -8.693332436601613 0.0
    vertex -3.8748692590517195 -1.74582021561671 0.0
    vertex -3.290984769685049 -2.6892227958466073 0.0
  endloop
endfacet
facet normal 0.0 0.0 -1.0
  outer loop
    vertex -2.3293714059226938 -8.693332436601613 0.0
    vertex -3.290984769685049 -2.6892227958466073 0.0
    vertex -2.48282510687382 -3.4493592866903557 0.0
  endloop
endfacet
facet normal 0.0 0.0 -1.0
  outer loop
    vertex -2.3293714059226938 -8.693332436601613 0.0
    vertex -2.48282510687382 -3.4493592866903557 0.0
    vertex -1.5054650160916279 -3.9744276424819 0.0
  endloop
endfacet
facet normal 0.0 0.0 -1.0
  outer loop
    vertex -2.3293714059226938 -8.693332436601613 0.0
    vertex -1.5054650160916279 -3.9744276424819 0.0
    vertex -1.6532731788489267e-15 -9.0 0.0
  endloop
endfacet
facet normal 0.0 0.0 -1.0
  outer loop
    vertex -1.6532731788489267e-15 -9.0 0.0
    vertex -1.5054650160916279 -3.9744276424819 0.0
    vertex -0.42550997236136434 -4.228645322490529 0.0
  endloop
endfacet
facet normal 0.0 0.0 -1.0
  outer loop
    vertex -1.6532731788489267e-15 -9.0 0.0
    vertex -0.42550997236136434 -4.228645322490529 0.0
    vertex 0.6834428727968505 -4.194687811938237 0.0
  endloop
endfacet
facet normal 0.0 0.0 -1.0
  outer loop
    vertex -1.6532731788489267e-15 -9.0 0.0
    vertex 0.6834428727968505 -4.194687811938237 0.0
    vertex 2.3293714059226827 -8.693332436601617 0.0
  endloop
endfacet
facet normal 0.0 0.0 -1.0
  outer loop
    vertex 2.3293714059226827 -8.693332436601617 0.0
    vertex 0.6834428727968505 -4.194687811938237 0.0
    vertex 1.7458202156167082 -3.8748692590517204 0.0
  endloop
endfacet
facet normal 0.0 0.0 -1.0
  outer loop
    vertex 2.3293714059226827 -8.693332436601617 0.0
    vertex 1.7458202156167082 -3.8748692590517204 0.0
    vertex 2.6892227958466073 -3.29098476968505 0.0
  endloop
endfacet
facet normal 0.0 0.0 -1.0
  outer loop
    vertex 2.3293714059226827 -8.693332436601617 0.0
    vertex 2.6892227958466073 -3.29098476968505 0.0
    vertex 4.499999999999994 -7.794228634059951 0.0
  endloop
endfacet
facet normal 0.0 0.0 -1.0
  outer loop
    vertex 4.499999999999994 -7.794228634059951 0.0
    vertex 2.6892227958466073 -3.29098476968505 0.0
    vertex 3.4493592866903544 -2.4828251068738214 0.0
  endloop
endfacet
facet normal 0.0 0.0 -1.0
  outer loop
    vertex 4.499999999999994 -7.794228634059951 0.0
    vertex 3.4493592866903544 -2.4828251068738214 0.0
    vertex 3.9744276424819 -1.505465016091628 0.0
  endloop
endfacet
facet normal 0.0 0.0 -1.0
  outer loop
    vertex 4.499999999999994 -7.794228634059951 0.0
    vertex 3.9744276424819 -1.505465016091628 0.0
    vertex 4.228645322490529 -0.4255099723613647 0.0
  endloop
endfacet
facet normal -0.0 -0.0 1.0
  outer loop
    vertex -8.693332436601617 -2.3293714059226835 5.0
    vertex -8.693332436601615 2.3293714059226893 5.0
    vertex -9.0 1.102182119232618e-15 5.0
  endloop
endfacet
facet normal -0.0 -0.0 1.0
  outer loop
    vertex -8.693332436601615 2.3293714059226893 5.0
    vertex -8.693332436601617 -2.3293714059226835 5.0
    vertex -7.79422863405995 -4.499999999999997 5.0
  endloop
endfacet
facet normal -0.0 -0.0 1.0
  outer loop
    vertex -8.693332436601615 2.3293714059226893 5.0
    vertex -7.79422863405995 -4.499999999999997 5.0
    vertex -7.794228634059947 4.500000000000003 5.0
  endloop
endfacet
facet normal -0.0 -0.0 1.0
  outer loop
    vertex -7.794228634059947 4.500000000000003 5.0
    vertex -7.79422863405995 -4.499999999999997 5.0
    vertex -6.363961030678931 -6.363961030678924 5.0
  endloop
endfacet
facet normal -0.0 -0.0 1.0
  outer loop
    vertex -7.794228634059947 4.500000000000003 5.0
    vertex -6.363961030678931 -6.363961030678924 5.0
    vertex -6.3639610306789285 6.3639610306789285 5.0
  endloop
endfacet
facet normal -0.0 -0.0 1.0
  outer loop
    vertex -6.3639610306789285 6.3639610306789285 5.0
    vertex -6.363961030678931 -6.363961030678924 5.0
    vertex -4.500000000000004 -7.794228634059947 5.0
  endloop
endfacet
facet normal -0.0 -0.0 1.0
  outer loop
    vertex -6.3639610306789285 6.3639610306789285 5.0
    vertex -4.500000000000004 -7.794228634059947 5.0
    vertex -4.499999999999998 7.794228634059948 5.0
  endloop
endfacet
facet normal -0.0 -0.0 1.0
  outer loop
    vertex -4.499999999999998 7.794228634059948 5.0
    vertex -4.500000000000004 -7.794228634059947 5.0
    vertex -4.194687811938236 -0.6834428727968508 5.0
  endloop
endfacet
facet normal -0.0 -0.0 1.0
  outer loop
    vertex -4.194687811938236 -0.6834428727968508 5.0
    vertex -4.500000000000004 -7.794228634059947 5.0
    vertex -2.3293714059226938 -8.693332436601613 5.0
  endloop
endfacet
facet normal -0.0 -0.0 1.0
  outer loop
    vertex -4.499999999999998 7.794228634059948 5.0
    vertex -4.194687811938236 -0.6834428727968508 5.0
    vertex -4.228645322490529 0.4255099723613631 5.0
  endloop
endfacet
facet normal -0.0 -0.0 1.0
  outer loop
    vertex -4.194687811938236 -0.6834428727968508 5.0
    vertex -2.3293714059226938 -8.693332436601613 5.0
    vertex -3.8748692590517195 -1.74582021561671 5.0
  endloop
endfacet
facet normal -0.0 -0.0 1.0
  outer loop
    vertex -3.8748692590517195 -1.74582021561671 5.0
    vertex -2.3293714059226938 -8.693332436601613 5.0
    vertex -3.290984769685049 -2.6892227958466073 5.0
  endloop
endfacet
facet normal -0.0 -0.0 1.0
  outer loop
    vertex -3.290984769685049 -2.6892227958466073 5.0
    vertex -2.3293714059226938 -8.693332436601613 5.0
    vertex -2.48282510687382 -3.4493592866903557 5.0
  endloop
endfacet
facet normal -0.0 -0.0 1.0
  outer loop
    vertex -2.48282510687382 -3.4493592866903557 5.0
    vertex -2.3293714059226938 -8.693332436601613 5.0
    vertex -1.5054650160916279 -3.9744276424819 5.0
  endloop
endfacet
facet normal -0.0 -0.0 1.0
  outer loop
    vertex -1.5054650160916279 -3.9744276424819 5.0
    vertex -2.3293714059226938 -8.693332436601613 5.0
    vertex -1.6532731788489267e-15 -9.0 5.0
  endloop
endfacet
facet normal -0.0 -0.0 1.0
  outer loop
    vertex -1.5054650160916279 -3.9744276424819 5.0
    vertex -1.6532731788489267e-15 -9.0 5.0
    vertex -0.42550997236136434 -4.228645322490529 5.0
  endloop
endfacet
facet normal -0.0 -0.0 1.0
  outer loop
    vertex -0.42550997236136434 -4.228645322490529 5.0
    vertex -1.6532731788489267e-15 -9.0 5.0
    vertex 0.6834428727968505 -4.194687811938237 5.0
  endloop
endfacet
facet normal -0.0 -0.0 1.0
  outer loop
    vertex 0.6834428727968505 -4.194687811938237 5.0
    vertex -1.6532731788489267e-15 -9.0 5.0
    vertex 2.3293714059226827 -8.693332436601617 5.0
  endloop
endfacet
facet normal -0.0 -0.0 1.0
  outer loop
    vertex 0.6834428727968505 -4.194687811938237 5.0
    vertex 2.3293714059226827 -8.693332436601617 5.0
    vertex 1.7458202156167082 -3.8748692590517204 5.0
  endloop
endfacet
facet normal -0.0 -0.0 1.0
  outer loop
    vertex 1.7458202156167082 -3.8748692590517204 5.0
    vertex 2.3293714059226827 -8.693332436601617 5.0
    vertex 2.6892227958466073 -3.29098476968505 5.0
  endloop
endfacet
facet normal -0.0 -0.0 1.0
  outer loop
    vertex 2.6892227958466073 -3.29098476968505 5.0
    vertex 2.3293714059226827 -8.693332436601617 5.0
    vertex 4.499999999999994 -7.794228634059951 5.0
  endloop
endfacet
facet normal -0.0 -0.0 1.0
  outer loop
    vertex 2.6892227958466073 -3.29098476968505 5.0
    vertex 4.499999999999994 -7.794228634059951 5.0
    vertex 3.4493592866903544 -2.4828251068738214 5.0
  endloop
endfacet
facet normal -0.0 -0.0 1.0
  outer loop
    vertex 3.4493592866903544 -2.4828251068738214 5.0
    vertex 4.499999999999994 -7.794228634059951 5.0
    vertex 3.9744276424819 -1.505465016091628 5.0
  endloop
endfacet
facet normal -0.0 -0.0 1.0
  outer loop
    vertex 3.9744276424819 -1.505465016091628 5.0
    vertex 4.499999999999994 -7.794228634059951 5.0
    vertex 4.228645322490529 -0.4255099723613647 5.0
  endloop
endfacet
facet normal -0.0 -0.0 1.0
  outer loop
    vertex -4.228645322490529 0.4255099723613631 5.0
    vertex -2.3293714059226858 8.693332436601615 5.0
    vertex -4.499999999999998 7.794228634059948 5.0
  endloop
endfacet
facet normal -0.0 -0.0 1.0
  outer loop
    vertex -2.3293714059226858 8.693332436601615 5.0
    vertex -4.228645322490529 0.4255099723613631 5.0
    vertex -3.9744276424819 1.5054650160916276 5.0
  endloop
endfacet
facet normal -0.0 -0.0 1.0
  outer loop
    vertex -2.3293714059226858 8.693332436601615 5.0
    vertex -3.9744276424819 1.5054650160916276 5.0
    vertex -3.4493592866903566 2.4828251068738196 5.0
  endloop
endfacet
facet normal -0.0 -0.0 1.0
  outer loop
    vertex -2.3293714059226858 8.693332436601615 5.0
    vertex -3.4493592866903566 2.4828251068738196 5.0
    vertex -2.6892227958466086 3.2909847696850485 5.0
  endloop
endfacet
facet normal -0.0 -0.0 1.0
  outer loop
    vertex -2.3293714059226858 8.693332436601615 5.0
    vertex -2.6892227958466086 3.2909847696850485 5.0
    vertex -1.7458202156167102 3.8748692590517195 5.0
  endloop
endfacet
facet normal -0.0 -0.0 1.0
  outer loop
    vertex -2.3293714059226858 8.693332436601615 5.0
    vertex -1.7458202156167102 3.8748692590517195 5.0
    vertex 5.51091059616309e-16 9.0 5.0
  endloop
endfacet
facet normal -0.0 -0.0 1.0
  outer loop
    vertex 5.51091059616309e-16 9.0 5.0
    vertex -1.7458202156167102 3.8748692590517195 5.0
    vertex -0.6834428727968516 4.194687811938236 5.0
  endloop
endfacet
facet normal -0.0 -0.0 1.0
  outer loop
    vertex 5.51091059616309e-16 9.0 5.0
    vertex -0.6834428727968516 4.194687811938236 5.0
    vertex 0.42550997236136273 4.228645322490529 5.0
  endloop
endfacet
facet normal -0.0 -0.0 1.0
  outer loop
    vertex 5.51091059616309e-16 9.0 5.0
    vertex 0.42550997236136273 4.228645322490529 5.0
    vertex 2.329371405922689 8.693332436601615 5.0
  endloop
endfacet
facet normal -0.0 -0.0 1.0
  outer loop
    vertex 2.329371405922689 8.693332436601615 5.0
    vertex 0.42550997236136273 4.228645322490529 5.0
    vertex 1.5054650160916274 3.9744276424819 5.0
  endloop
endfacet
facet normal -0.0 -0.0 1.0
  outer loop
    vertex 2.329371405922689 8.693332436601615 5.0
    vertex 1.5054650160916274 3.9744276424819 5.0
    vertex 2.482825106873822 3.4493592866903544 5.0
  endloop
endfacet
facet normal -0.0 -0.0 1.0
  outer loop
    vertex 2.329371405922689 8.693332436601615 5.0
    vertex 2.482825106873822 3.4493592866903544 5.0
    vertex 4.500000000000001 7.794228634059948 5.0
  endloop
endfacet
facet normal -0.0 -0.0 1.0
  outer loop
    vertex 4.500000000000001 7.794228634059948 5.0
    vertex 2.482825106873822 3.4493592866903544 5.0
    vertex 3.290984769685049 2.689222795846607 5.0
  endloop
endfacet
facet normal -0.0 -0.0 1.0
  outer loop
    vertex 4.500000000000001 7.794228634059948 5.0
    vertex 3.290984769685049 2.689222795846607 5.0
    vertex 3.8748692590517204 1.7458202156167093 5.0
  endloop
endfacet
facet normal -0.0 -0.0 1.0
  outer loop
    vertex 4.500000000000001 7.794228634059948 5.0
    vertex 3.8748692590517204 1.7458202156167093 5.0
    vertex 4.194687811938236 0.6834428727968489 5.0
  endloop
endfacet
facet normal -0.0 -0.0 1.0
  outer loop
    vertex 4.500000000000001 7.794228634059948 5.0
    vertex 4.194687811938236 0.6834428727968489 5.0
    vertex 4.228645322490529 -0.4255099723613647 5.0
  endloop
endfacet
facet normal -0.0 -0.0 1.0
  outer loop
    vertex 4.500000000000001 7.794228634059948 5.0
    vertex 4.228645322490529 -0.4255099723613647 5.0
    vertex 4.499999999999994 -7.794228634059951 5.0
  endloop
endfacet
facet normal -0.0 -0.0 1.0
  outer loop
    vertex 4.500000000000001 7.794228634059948 5.0
    vertex 4.499999999999994 -7.794228634059951 5.0
    vertex 6.363961030678927 -6.363961030678929 5.0
  endloop
endfacet
facet normal -0.0 -0.0 1.0
  outer loop
    vertex 4.500000000000001 7.794228634059948 5.0
    vertex 6.363961030678927 -6.363961030678929 5.0
    vertex 6.3639610306789285 6.3639610306789285 5.0
  endloop
endfacet
facet normal -0.0 -0.0 1.0
  outer loop
    vertex 6.3639610306789285 6.3639610306789285 5.0
    vertex 6.363961030678927 -6.363961030678929 5.0
    vertex 7.794228634059945 -4.500000000000004 5.0
  endloop
endfacet
facet normal -0.0 -0.0 1.0
  outer loop
    vertex 6.3639610306789285 6.3639610306789285 5.0
    vertex 7.794228634059945 -4.500000000000004 5.0
    vertex 7.794228634059948 4.499999999999999 5.0
  endloop
endfacet
facet normal -0.0 -0.0 1.0
  outer loop
    vertex 7.794228634059948 4.499999999999999 5.0
    vertex 7.794228634059945 -4.500000000000004 5.0
    vertex 8.693332436601613 -2.329371405922694 5.0
  endloop
endfacet
facet normal -0.0 -0.0 1.0
  outer loop
    vertex 7.794228634059948 4.499999999999999 5.0
    vertex 8.693332436601613 -2.329371405922694 5.0
    vertex 8.693332436601615 2.329371405922687 5.0
  endloop
endfacet
facet normal -0.0 -0.0 1.0
  outer loop
    vertex 8.693332436601615 2.329371405922687 5.0
    vertex 8.693332436601613 -2.329371405922694 5.0
    vertex 9.0 0.0 5.0
  endloop
endfacet
facet normal 0.9238795325112868 0.3826834323650897 0.0
  outer loop
    vertex 7.794228634059948 4.499999999999999 0.0
    vertex 8.693332436601615 2.329371405922687 5.0
    vertex 8.693332436601615 2.329371405922687 0.0
  endloop
endfacet
facet normal 0.9238795325112868 0.3826834323650897 0.0
  outer loop
    vertex 8.693332436601615 2.329371405922687 5.0
    vertex 7.794228634059948 4.499999999999999 0.0
    vertex 7.794228634059948 4.499999999999999 5.0
  endloop
endfacet
facet normal 0.9914448613738105 0.13052619222005174 0.0
  outer loop
    vertex 8.693332436601615 2.329371405922687 0.0
    vertex 9.0 0.0 5.0
    vertex 9.0 0.0 0.0
  endloop
endfacet
facet normal 0.9914448613738105 0.13052619222005174 0.0
  outer loop
    vertex 9.0 0.0 5.0
    vertex 8.693332436601615 2.329371405922687 0.0
    vertex 8.693332436601615 2.329371405922687 5.0
  endloop
endfacet
facet normal 0.9914448613738104 -0.13052619222005193 0.0
  outer loop
    vertex 9.0 0.0 0.0
    vertex 8.693332436601613 -2.329371405922694 5.0
    vertex 8.693332436601613 -2.329371405922694 0.0
  endloop
endfacet
facet normal 0.9914448613738104 -0.13052619222005193 0.0
  outer loop
    vertex 8.693332436601613 -2.329371405922694 5.0
    vertex 9.0 0.0 0.0
    vertex 9.0 0.0 5.0
  endloop
endfacet
facet normal 0.9238795325112864 -0.3826834323650906 0.0
  outer loop
    vertex 8.693332436601613 -2.329371405922694 0.0
    vertex 7.794228634059945 -4.500000000000004 5.0
    vertex 7.794228634059945 -4.500000000000004 0.0
  endloop
endfacet
facet normal 0.9238795325112864 -0.3826834323650906 0.0
  outer loop
    vertex 7.794228634059945 -4.500000000000004 5.0
    vertex 8.693332436601613 -2.329371405922694 0.0
    vertex 8.693332436601613 -2.329371405922694 5.0
  endloop
endfacet
facet normal 0.7933533402912349 -0.6087614290087209 0.0
  outer loop
    vertex 7.794228634059945 -4.500000000000004 0.0
    vertex 6.363961030678927 -6.363961030678929 5.0
    vertex 6.363961030678927 -6.363961030678929 0.0
  endloop
endfacet
facet normal 0.7933533402912349 -0.6087614290087209 0.0
  outer loop
    vertex 6.363961030678927 -6.363961030678929 5.0
    vertex 7.794228634059945 -4.500000000000004 0.0
    vertex 7.794228634059945 -4.500000000000004 5.0
  endloop
endfacet
facet normal 0.60876142900872 -0.7933533402912357 0.0
  outer loop
    vertex 6.363961030678927 -6.363961030678929 5.0
    vertex 4.499999999999994 -7.794228634059951 0.0
    vertex 6.363961030678927 -6.363961030678929 0.0
  endloop
endfacet
facet normal 0.60876142900872 -0.7933533402912357 0.0
  outer loop
    vertex 4.499999999999994 -7.794228634059951 0.0
    vertex 6.363961030678927 -6.363961030678929 5.0
    vertex 4.499999999999994 -7.794228634059951 5.0
  endloop
endfacet
facet normal 0.3826834323650895 -0.9238795325112871 0.0
  outer loop
    vertex 4.499999999999994 -7.794228634059951 5.0
    vertex 2.3293714059226827 -8.693332436601617 0.0
    vertex 4.499999999999994 -7.794228634059951 0.0
  endloop
endfacet
facet normal 0.3826834323650895 -0.9238795325112871 0.0
  outer loop
    vertex 2.3293714059226827 -8.693332436601617 0.0
    vertex 4.499999999999994 -7.794228634059951 5.0
    vertex 2.3293714059226827 -8.693332436601617 5.0
  endloop
endfacet
facet normal 0.1305261922200513 -0.9914448613738106 0.0
  outer loop
    vertex 2.3293714059226827 -8.693332436601617 5.0
    vertex -1.6532731788489267e-15 -9.0 0.0
    vertex 2.3293714059226827 -8.693332436601617 0.0
  endloop
endfacet
facet normal 0.1305261922200513 -0.9914448613738106 0.0
  outer loop
    vertex -1.6532731788489267e-15 -9.0 0.0
    vertex 2.3293714059226827 -8.693332436601617 5.0
    vertex -1.6532731788489267e-15 -9.0 5.0
  endloop
endfacet
facet normal -0.13052619222005207 -0.9914448613738105 -0.0
  outer loop
    vertex -1.6532731788489267e-15 -9.0 5.0
    vertex -2.3293714059226938 -8.693332436601613 0.0
    vertex -1.6532731788489267e-15 -9.0 0.0
  endloop
endfacet
facet normal -0.13052619222005207 -0.9914448613738105 -0.0
  outer loop
    vertex -2.3293714059226938 -8.693332436601613 0.0
    vertex -1.6532731788489267e-15 -9.0 5.0
    vertex -2.3293714059226938 -8.693332436601613 5.0
  endloop
endfacet
facet normal -0.38268343236509006 -0.9238795325112868 -0.0
  outer loop
    vertex -2.3293714059226938 -8.693332436601613 5.0
    vertex -4.500000000000004 -7.794228634059947 0.0
    vertex -2.3293714059226938 -8.693332436601613 0.0
  endloop
endfacet
facet normal -0.38268343236509006 -0.9238795325112868 -0.0
  outer loop
    vertex -4.500000000000004 -7.794228634059947 0.0
    vertex -2.3293714059226938 -8.693332436601613 5.0
    vertex -4.500000000000004 -7.794228634059947 5.0
  endloop
endfacet
facet normal -0.6087614290087218 -0.7933533402912344 -0.0
  outer loop
    vertex -4.500000000000004 -7.794228634059947 5.0
    vertex -6.363961030678931 -6.363961030678924 0.0
    vertex -4.500000000000004 -7.794228634059947 0.0
  endloop
endfacet
facet normal -0.6087614290087218 -0.7933533402912344 -0.0
  outer loop
    vertex -6.363961030678931 -6.363961030678924 0.0
    vertex -4.500000000000004 -7.794228634059947 5.0
    vertex -6.363961030678931 -6.363961030678924 5.0
  endloop
endfacet
facet normal -0.7933533402912354 -0.6087614290087207 -0.0
  outer loop
    vertex -7.79422863405995 -4.499999999999997 5.0
    vertex -6.363961030678931 -6.363961030678924 0.0
    vertex -6.363961030678931 -6.363961030678924 5.0
  endloop
endfacet
facet normal -0.7933533402912354 -0.6087614290087207 -0.0
  outer loop
    vertex -6.363961030678931 -6.363961030678924 0.0
    vertex -7.79422863405995 -4.499999999999997 5.0
    vertex -7.79422863405995 -4.499999999999997 0.0
  endloop
endfacet
facet normal -0.9238795325112868 -0.3826834323650895 -0.0
  outer loop
    vertex -8.693332436601617 -2.3293714059226835 5.0
    vertex -7.79422863405995 -4.499999999999997 0.0
    vertex -7.79422863405995 -4.499999999999997 5.0
  endloop
endfacet
facet normal -0.9238795325112868 -0.3826834323650895 -0.0
  outer loop
    vertex -7.79422863405995 -4.499999999999997 0.0
    vertex -8.693332436601617 -2.3293714059226835 5.0
    vertex -8.693332436601617 -2.3293714059226835 0.0
  endloop
endfacet
facet normal -0.9914448613738106 -0.1305261922200513 -0.0
  outer loop
    vertex -9.0 1.102182119232618e-15 5.0
    vertex -8.693332436601617 -2.3293714059226835 0.0
    vertex -8.693332436601617 -2.3293714059226835 5.0
  endloop
endfacet
facet normal -0.9914448613738106 -0.1305261922200513 -0.0
  outer loop
    vertex -8.693332436601617 -2.3293714059226835 0.0
    vertex -9.0 1.102182119232618e-15 5.0
    vertex -9.0 1.102182119232618e-15 0.0
  endloop
endfacet
facet normal -0.9914448613738105 0.13052619222005166 0.0
  outer loop
    vertex -8.693332436601615 2.3293714059226893 5.0
    vertex -9.0 1.102182119232618e-15 0.0
    vertex -9.0 1.102182119232618e-15 5.0
  endloop
endfacet
facet normal -0.9914448613738105 0.13052619222005166 0.0
  outer loop
    vertex -9.0 1.102182119232618e-15 0.0
    vertex -8.693332436601615 2.3293714059226893 5.0
    vertex -8.693332436601615 2.3293714059226893 0.0
  endloop
endfacet
facet normal -0.9238795325112867 0.3826834323650901 0.0
  outer loop
    vertex -7.794228634059947 4.500000000000003 5.0
    vertex -8.693332436601615 2.3293714059226893 0.0
    vertex -8.693332436601615 2.3293714059226893 5.0
  endloop
endfacet
facet normal -0.9238795325112867 0.3826834323650901 0.0
  outer loop
    vertex -8.693332436601615 2.3293714059226893 0.0
    vertex -7.794228634059947 4.500000000000003 5.0
    vertex -7.794228634059947 4.500000000000003 0.0
  endloop
endfacet
facet normal -0.7933533402912349 0.6087614290087209 0.0
  outer loop
    vertex -6.3639610306789285 6.3639610306789285 5.0
    vertex -7.794228634059947 4.500000000000003 0.0
    vertex -7.794228634059947 4.500000000000003 5.0
  endloop
endfacet
facet normal -0.7933533402912349 0.6087614290087209 0.0
  outer loop
    vertex -7.794228634059947 4.500000000000003 0.0
    vertex -6.3639610306789285 6.3639610306789285 5.0
    vertex -6.3639610306789285 6.3639610306789285 0.0
  endloop
endfacet
facet normal -0.6087614290087202 0.7933533402912356 0.0
  outer loop
    vertex -6.3639610306789285 6.3639610306789285 5.0
    vertex -4.499999999999998 7.794228634059948 0.0
    vertex -6.3639610306789285 6.3639610306789285 0.0
  endloop
endfacet
facet normal -0.6087614290087202 0.7933533402912356 0.0
  outer loop
    vertex -4.499999999999998 7.794228634059948 0.0
    vertex -6.3639610306789285 6.3639610306789285 5.0
    vertex -4.499999999999998 7.794228634059948 5.0
  endloop
endfacet
facet normal -0.3826834323650897 0.9238795325112867 0.0
  outer loop
    vertex -4.499999999999998 7.794228634059948 5.0
    vertex -2.3293714059226858 8.693332436601615 0.0
    vertex -4.499999999999998 7.794228634059948 0.0
  endloop
endfacet
facet normal -0.3826834323650897 0.9238795325112867 0.0
  outer loop
    vertex -2.3293714059226858 8.693332436601615 0.0
    vertex -4.499999999999998 7.794228634059948 5.0
    vertex -2.3293714059226858 8.693332436601615 5.0
  endloop
endfacet
facet normal -0.13052619222005174 0.9914448613738104 0.0
  outer loop
    vertex -2.3293714059226858 8.693332436601615 5.0
    vertex 5.51091059616309e-16 9.0 0.0
    vertex -2.3293714059226858 8.693332436601615 0.0
  endloop
endfacet
facet normal -0.13052619222005174 0.9914448613738104 0.0
  outer loop
    vertex 5.51091059616309e-16 9.0 0.0
    vertex -2.3293714059226858 8.693332436601615 5.0
    vertex 5.51091059616309e-16 9.0 5.0
  endloop
endfacet
facet normal 0.13052619222005168 0.9914448613738105 0.0
  outer loop
    vertex 5.51091059616309e-16 9.0 5.0
    vertex 2.329371405922689 8.693332436601615 0.0
    vertex 5.51091059616309e-16 9.0 0.0
  endloop
endfacet
facet normal 0.13052619222005168 0.9914448613738105 0.0
  outer loop
    vertex 2.329371405922689 8.693332436601615 0.0
    vertex 5.51091059616309e-16 9.0 5.0
    vertex 2.329371405922689 8.693332436601615 5.0
  endloop
endfacet
facet normal 0.3826834323650897 0.9238795325112867 0.0
  outer loop
    vertex 2.329371405922689 8.693332436601615 5.0
    vertex 4.500000000000001 7.794228634059948 0.0
    vertex 2.329371405922689 8.693332436601615 0.0
  endloop
endfacet
facet normal 0.3826834323650897 0.9238795325112867 0.0
  outer loop
    vertex 4.500000000000001 7.794228634059948 0.0
    vertex 2.329371405922689 8.693332436601615 5.0
    vertex 4.500000000000001 7.794228634059948 5.0
  endloop
endfacet
facet normal 0.6087614290087209 0.793353340291235 0.0
  outer loop
    vertex 4.500000000000001 7.794228634059948 5.0
    vertex 6.3639610306789285 6.3639610306789285 0.0
    vertex 4.500000000000001 7.794228634059948 0.0
  endloop
endfacet
facet normal 0.6087614290087209 0.793353340291235 0.0
  outer loop
    vertex 6.3639610306789285 6.3639610306789285 0.0
    vertex 4.500000000000001 7.794228634059948 5.0
    vertex 6.3639610306789285 6.3639610306789285 5.0
  endloop
endfacet
facet normal 0.7933533402912353 0.6087614290087205 0.0
  outer loop
    vertex 6.3639610306789285 6.3639610306789285 0.0
    vertex 7.794228634059948 4.499999999999999 5.0
    vertex 7.794228634059948 4.499999999999999 0.0
  endloop
endfacet
facet normal 0.7933533402912353 0.6087614290087205 0.0
  outer loop
    vertex 7.794228634059948 4.499999999999999 5.0
    vertex 6.3639610306789285 6.3639610306789285 0.0
    vertex 6.3639610306789285 6.3639610306789285 5.0
  endloop
endfacet
facet normal 0.28826177692262406 -0.9575516424535084 0.0
  outer loop
    vertex -0.6834428727968516 4.194687811938236 5.0
    vertex -1.7458202156167102 3.8748692590517195 0.0
    vertex -0.6834428727968516 4.194687811938236 0.0
  endloop
endfacet
facet normal 0.28826177692262406 -0.9575516424535084 0.0
  outer loop
    vertex -1.7458202156167102 3.8748692590517195 0.0
    vertex -0.6834428727968516 4.194687811938236 5.0
    vertex -1.7458202156167102 3.8748692590517195 5.0
  endloop
endfacet
facet normal 0.5262720967977076 -0.8503162236086904 0.0
  outer loop
    vertex -1.7458202156167102 3.8748692590517195 5.0
    vertex -2.6892227958466086 3.2909847696850485 0.0
    vertex -1.7458202156167102 3.8748692590517195 0.0
  endloop
endfacet
facet normal 0.5262720967977076 -0.8503162236086904 0.0
  outer loop
    vertex -2.6892227958466086 3.2909847696850485 0.0
    vertex -1.7458202156167102 3.8748692590517195 5.0
    vertex -2.6892227958466086 3.2909847696850485 5.0
  endloop
endfacet
facet normal 0.7284178429817895 -0.6851331593389398 0.0
  outer loop
    vertex -2.6892227958466086 3.2909847696850485 0.0
    vertex -3.4493592866903566 2.4828251068738196 5.0
    vertex -3.4493592866903566 2.4828251068738196 0.0
  endloop
endfacet
facet normal 0.7284178429817895 -0.6851331593389398 0.0
  outer loop
    vertex -3.4493592866903566 2.4828251068738196 5.0
    vertex -2.6892227958466086 3.2909847696850485 0.0
    vertex -2.6892227958466086 3.2909847696850485 5.0
  endloop
endfacet
facet normal 0.8809231169340634 -0.4732594024963209 0.0
  outer loop
    vertex -3.4493592866903566 2.4828251068738196 0.0
    vertex -3.9744276424819 1.5054650160916276 5.0
    vertex -3.9744276424819 1.5054650160916276 0.0
  endloop
endfacet
facet normal 0.8809231169340634 -0.4732594024963209 0.0
  outer loop
    vertex -3.9744276424819 1.5054650160916276 5.0
    vertex -3.4493592866903566 2.4828251068738196 0.0
    vertex -3.4493592866903566 2.4828251068738196 5.0
  endloop
endfacet
facet normal 0.973394936261564 -0.22913379947171902 0.0
  outer loop
    vertex -3.9744276424819 1.5054650160916276 0.0
    vertex -4.228645322490529 0.4255099723613631 5.0
    vertex -4.228645322490529 0.4255099723613631 0.0
  endloop
endfacet
facet normal 0.973394936261564 -0.22913379947171902 0.0
  outer loop
    vertex -4.228645322490529 0.4255099723613631 5.0
    vertex -3.9744276424819 1.5054650160916276 0.0
    vertex -3.9744276424819 1.5054650160916276 5.0
  endloop
endfacet
facet normal 0.9995314992940288 0.03060689332537325 0.0
  outer loop
    vertex -4.228645322490529 0.4255099723613631 0.0
    vertex -4.194687811938236 -0.6834428727968508 5.0
    vertex -4.194687811938236 -0.6834428727968508 0.0
  endloop
endfacet
facet normal 0.9995314992940288 0.03060689332537325 0.0
  outer loop
    vertex -4.194687811938236 -0.6834428727968508 5.0
    vertex -4.228645322490529 0.4255099723613631 0.0
    vertex -4.228645322490529 0.4255099723613631 5.0
  endloop
endfacet
facet normal 0.9575516424535087 0.2882617769226234 0.0
  outer loop
    vertex -4.194687811938236 -0.6834428727968508 0.0
    vertex -3.8748692590517195 -1.74582021561671 5.0
    vertex -3.8748692590517195 -1.74582021561671 0.0
  endloop
endfacet
facet normal 0.9575516424535087 0.2882617769226234 0.0
  outer loop
    vertex -3.8748692590517195 -1.74582021561671 5.0
    vertex -4.194687811938236 -0.6834428727968508 0.0
    vertex -4.194687811938236 -0.6834428727968508 5.0
  endloop
endfacet
facet normal 0.8503162236086905 0.5262720967977077 0.0
  outer loop
    vertex -3.8748692590517195 -1.74582021561671 0.0
    vertex -3.290984769685049 -2.6892227958466073 5.0
    vertex -3.290984769685049 -2.6892227958466073 0.0
  endloop
endfacet
facet normal 0.8503162236086905 0.5262720967977077 0.0
  outer loop
    vertex -3.290984769685049 -2.6892227958466073 5.0
    vertex -3.8748692590517195 -1.74582021561671 0.0
    vertex -3.8748692590517195 -1.74582021561671 5.0
  endloop
endfacet
facet normal 0.68513315933894 0.7284178429817892 0.0
  outer loop
    vertex -3.290984769685049 -2.6892227958466073 5.0
    vertex -2.48282510687382 -3.4493592866903557 0.0
    vertex -3.290984769685049 -2.6892227958466073 0.0
  endloop
endfacet
facet normal 0.68513315933894 0.7284178429817892 0.0
  outer loop
    vertex -2.48282510687382 -3.4493592866903557 0.0
    vertex -3.290984769685049 -2.6892227958466073 5.0
    vertex -2.48282510687382 -3.4493592866903557 5.0
  endloop
endfacet
facet normal 0.4732594024963214 0.8809231169340631 0.0
  outer loop
    vertex -2.48282510687382 -3.4493592866903557 5.0
    vertex -1.5054650160916279 -3.9744276424819 0.0
    vertex -2.48282510687382 -3.4493592866903557 0.0
  endloop
endfacet
facet normal 0.4732594024963214 0.8809231169340631 0.0
  outer loop
    vertex -1.5054650160916279 -3.9744276424819 0.0
    vertex -2.48282510687382 -3.4493592866903557 5.0
    vertex -1.5054650160916279 -3.9744276424819 5.0
  endloop
endfacet
facet normal 0.22913379947171922 0.973394936261564 0.0
  outer loop
    vertex -1.5054650160916279 -3.9744276424819 5.0
    vertex -0.42550997236136434 -4.228645322490529 0.0
    vertex -1.5054650160916279 -3.9744276424819 0.0
  endloop
endfacet
facet normal 0.22913379947171922 0.973394936261564 0.0
  outer loop
    vertex -0.42550997236136434 -4.228645322490529 0.0
    vertex -1.5054650160916279 -3.9744276424819 5.0
    vertex -0.42550997236136434 -4.228645322490529 5.0
  endloop
endfacet
facet normal -0.03060689332537196 0.9995314992940291 0.0
  outer loop
    vertex -0.42550997236136434 -4.228645322490529 5.0
    vertex 0.6834428727968505 -4.194687811938237 0.0
    vertex -0.42550997236136434 -4.228645322490529 0.0
  endloop
endfacet
facet normal -0.03060689332537196 0.9995314992940291 0.0
  outer loop
    vertex 0.6834428727968505 -4.194687811938237 0.0
    vertex -0.42550997236136434 -4.228645322490529 5.0
    vertex 0.6834428727968505 -4.194687811938237 5.0
  endloop
endfacet
facet normal -0.2882617769226243 0.9575516424535082 0.0
  outer loop
    vertex 0.6834428727968505 -4.194687811938237 5.0
    vertex 1.7458202156167082 -3.8748692590517204 0.0
    vertex 0.6834428727968505 -4.194687811938237 0.0
  endloop
endfacet
facet normal -0.2882617769226243 0.9575516424535082 0.0
  outer loop
    vertex 1.7458202156167082 -3.8748692590517204 0.0
    vertex 0.6834428727968505 -4.194687811938237 5.0
    vertex 1.7458202156167082 -3.8748692590517204 5.0
  endloop
endfacet
facet normal -0.5262720967977069 0.850316223608691 0.0
  outer loop
    vertex 1.7458202156167082 -3.8748692590517204 5.0
    vertex 2.6892227958466073 -3.29098476968505 0.0
    vertex 1.7458202156167082 -3.8748692590517204 0.0
  endloop
endfacet
facet normal -0.5262720967977069 0.850316223608691 0.0
  outer loop
    vertex 2.6892227958466073 -3.29098476968505 0.0
    vertex 1.7458202156167082 -3.8748692590517204 5.0
    vertex 2.6892227958466073 -3.29098476968505 5.0
  endloop
endfacet
facet normal -0.7284178429817897 0.6851331593389397 0.0
  outer loop
    vertex 3.4493592866903544 -2.4828251068738214 5.0
    vertex 2.6892227958466073 -3.29098476968505 0.0
    vertex 2.6892227958466073 -3.29098476968505 5.0
  endloop
endfacet
facet normal -0.7284178429817897 0.6851331593389397 0.0
  outer loop
    vertex 2.6892227958466073 -3.29098476968505 0.0
    vertex 3.4493592866903544 -2.4828251068738214 5.0
    vertex 3.4493592866903544 -2.4828251068738214 0.0
  endloop
endfacet
facet normal -0.8809231169340628 0.4732594024963219 0.0
  outer loop
    vertex 3.9744276424819 -1.505465016091628 5.0
    vertex 3.4493592866903544 -2.4828251068738214 0.0
    vertex 3.4493592866903544 -2.4828251068738214 5.0
  endloop
endfacet
facet normal -0.8809231169340628 0.4732594024963219 0.0
  outer loop
    vertex 3.4493592866903544 -2.4828251068738214 0.0
    vertex 3.9744276424819 -1.505465016091628 5.0
    vertex 3.9744276424819 -1.505465016091628 0.0
  endloop
endfacet
facet normal -0.9733949362615639 0.22913379947171922 0.0
  outer loop
    vertex 4.228645322490529 -0.4255099723613647 5.0
    vertex 3.9744276424819 -1.505465016091628 0.0
    vertex 3.9744276424819 -1.505465016091628 5.0
  endloop
endfacet
facet normal -0.9733949362615639 0.22913379947171922 0.0
  outer loop
    vertex 3.9744276424819 -1.505465016091628 0.0
    vertex 4.228645322490529 -0.4255099723613647 5.0
    vertex 4.228645322490529 -0.4255099723613647 0.0
  endloop
endfacet
facet normal -0.999531499294029 -0.030606893325372624 -0.0
  outer loop
    vertex 4.194687811938236 0.6834428727968489 5.0
    vertex 4.228645322490529 -0.4255099723613647 0.0
    vertex 4.228645322490529 -0.4255099723613647 5.0
  endloop
endfacet
facet normal -0.999531499294029 -0.030606893325372624 -0.0
  outer loop
    vertex 4.228645322490529 -0.4255099723613647 0.0
    vertex 4.194687811938236 0.6834428727968489 5.0
    vertex 4.194687811938236 0.6834428727968489 0.0
  endloop
endfacet
facet normal -0.9575516424535087 -0.28826177692262306 -0.0
  outer loop
    vertex 3.8748692590517204 1.7458202156167093 5.0
    vertex 4.194687811938236 0.6834428727968489 0.0
    vertex 4.194687811938236 0.6834428727968489 5.0
  endloop
endfacet
facet normal -0.9575516424535087 -0.28826177692262306 -0.0
  outer loop
    vertex 4.194687811938236 0.6834428727968489 0.0
    vertex 3.8748692590517204 1.7458202156167093 5.0
    vertex 3.8748692590517204 1.7458202156167093 0.0
  endloop
endfacet
facet normal -0.8503162236086902 -0.526272096797708 -0.0
  outer loop
    vertex 3.290984769685049 2.689222795846607 5.0
    vertex 3.8748692590517204 1.7458202156167093 0.0
    vertex 3.8748692590517204 1.7458202156167093 5.0
  endloop
endfacet
facet normal -0.8503162236086902 -0.526272096797708 -0.0
  outer loop
    vertex 3.8748692590517204 1.7458202156167093 0.0
    vertex 3.290984769685049 2.689222795846607 5.0
    vertex 3.290984769685049 2.689222795846607 0.0
  endloop
endfacet
facet normal -0.6851331593389406 -0.7284178429817889 -0.0
  outer loop
    vertex 3.290984769685049 2.689222795846607 5.0
    vertex 2.482825106873822 3.4493592866903544 0.0
    vertex 3.290984769685049 2.689222795846607 0.0
  endloop
endfacet
facet normal -0.6851331593389406 -0.7284178429817889 -0.0
  outer loop
    vertex 2.482825106873822 3.4493592866903544 0.0
    vertex 3.290984769685049 2.689222795846607 5.0
    vertex 2.482825106873822 3.4493592866903544 5.0
  endloop
endfacet
facet normal -0.4732594024963215 -0.880923116934063 -0.0
  outer loop
    vertex 2.482825106873822 3.4493592866903544 5.0
    vertex 1.5054650160916274 3.9744276424819 0.0
    vertex 2.482825106873822 3.4493592866903544 0.0
  endloop
endfacet
facet normal -0.4732594024963215 -0.880923116934063 -0.0
  outer loop
    vertex 1.5054650160916274 3.9744276424819 0.0
    vertex 2.482825106873822 3.4493592866903544 5.0
    vertex 1.5054650160916274 3.9744276424819 5.0
  endloop
endfacet
facet normal -0.22913379947171894 -0.9733949362615639 -0.0
  outer loop
    vertex 1.5054650160916274 3.9744276424819 5.0
    vertex 0.42550997236136273 4.228645322490529 0.0
    vertex 1.5054650160916274 3.9744276424819 0.0
  endloop
endfacet
facet normal -0.22913379947171894 -0.9733949362615639 -0.0
  outer loop
    vertex 0.42550997236136273 4.228645322490529 0.0
    vertex 1.5054650160916274 3.9744276424819 5.0
    vertex 0.42550997236136273 4.228645322490529 5.0
  endloop
endfacet
facet normal 0.030606893325372607 -0.999531499294029 0.0
  outer loop
    vertex 0.42550997236136273 4.228645322490529 5.0
    vertex -0.6834428727968516 4.194687811938236 0.0
    vertex 0.42550997236136273 4.228645322490529 0.0
  endloop
endfacet
facet normal 0.030606893325372607 -0.999531499294029 0.0
  outer loop
    vertex -0.6834428727968516 4.194687811938236 0.0
    vertex 0.42550997236136273 4.228645322490529 5.0
    vertex -0.6834428727968516 4.194687811938236 5.0
  endloop
endfacet
endsolid oxo-chime-ring
